<?xml version="1.0" encoding="UTF-8"?>
<svg xmlns="http://www.w3.org/2000/svg" xmlns:xlink="http://www.w3.org/1999/xlink" width="135px" height="40px" viewBox="0 0 135 40" version="1.1">
<g id="surface1">
<path style=" stroke:none;fill-rule:nonzero;fill:rgb(65.098039%,65.098039%,65.098039%);fill-opacity:1;" d="M 110.136719 0 L 9.535156 0 C 9.167969 0 8.804688 0 8.441406 0.00390625 C 8.136719 0.00390625 7.828125 0.0117188 7.519531 0.015625 C 6.851562 0.0234375 6.179688 0.0820312 5.515625 0.191406 C 4.855469 0.300781 4.214844 0.515625 3.613281 0.820312 C 3.015625 1.125 2.472656 1.519531 1.996094 1.996094 C 1.519531 2.472656 1.121094 3.015625 0.820312 3.617188 C 0.515625 4.21875 0.304688 4.859375 0.195312 5.519531 C 0.0820312 6.183594 0.0234375 6.855469 0.015625 7.523438 C 0.0078125 7.828125 0.00390625 8.140625 0 8.445312 L 0 31.558594 C 0.00390625 31.867188 0.0078125 32.171875 0.015625 32.480469 C 0.0234375 33.152344 0.0820312 33.820312 0.195312 34.484375 C 0.304688 35.144531 0.515625 35.789062 0.820312 36.386719 C 1.121094 36.984375 1.519531 37.53125 1.996094 38 C 2.472656 38.480469 3.015625 38.875 3.613281 39.179688 C 4.214844 39.484375 4.855469 39.699219 5.515625 39.808594 C 6.179688 39.921875 6.851562 39.980469 7.519531 39.984375 C 7.828125 39.992188 8.136719 39.996094 8.441406 39.996094 C 8.804688 40 9.167969 40 9.535156 40 L 110.136719 40 C 110.492188 40 110.859375 40 111.21875 39.996094 C 111.523438 39.996094 111.835938 39.992188 112.140625 39.984375 C 112.8125 39.980469 113.480469 39.921875 114.140625 39.808594 C 114.804688 39.695312 115.449219 39.484375 116.046875 39.179688 C 116.644531 38.875 117.195312 38.480469 117.667969 38 C 118.140625 37.527344 118.542969 36.984375 118.847656 36.386719 C 119.148438 35.789062 119.359375 35.144531 119.464844 34.484375 C 119.578125 33.820312 119.640625 33.152344 119.652344 32.480469 C 119.65625 32.171875 119.65625 31.867188 119.65625 31.558594 C 119.664062 31.195312 119.664062 30.832031 119.664062 30.464844 L 119.664062 9.535156 C 119.664062 9.171875 119.664062 8.804688 119.65625 8.445312 C 119.65625 8.140625 119.65625 7.828125 119.652344 7.523438 C 119.640625 6.855469 119.578125 6.183594 119.464844 5.519531 C 119.359375 4.859375 119.148438 4.21875 118.847656 3.617188 C 118.230469 2.417969 117.253906 1.4375 116.046875 0.820312 C 115.449219 0.515625 114.804688 0.304688 114.140625 0.191406 C 113.480469 0.078125 112.8125 0.0195312 112.140625 0.015625 C 111.835938 0.0117188 111.523438 0.00390625 111.21875 0.00390625 C 110.859375 0 110.492188 0 110.136719 0 Z M 110.136719 0 "/>
<path style=" stroke:none;fill-rule:nonzero;fill:rgb(0%,0%,0%);fill-opacity:1;" d="M 8.445312 39.125 C 8.140625 39.125 7.84375 39.121094 7.542969 39.113281 C 6.914062 39.109375 6.289062 39.050781 5.671875 38.953125 C 5.09375 38.851562 4.539062 38.667969 4.015625 38.402344 C 3.496094 38.140625 3.023438 37.796875 2.617188 37.386719 C 2.203125 36.980469 1.859375 36.507812 1.597656 35.988281 C 1.332031 35.46875 1.148438 34.910156 1.054688 34.332031 C 0.953125 33.710938 0.894531 33.085938 0.890625 32.457031 C 0.882812 32.246094 0.871094 31.546875 0.871094 31.546875 L 0.871094 8.445312 C 0.871094 8.445312 0.882812 7.753906 0.890625 7.546875 C 0.894531 6.921875 0.953125 6.296875 1.050781 5.675781 C 1.148438 5.101562 1.332031 4.539062 1.597656 4.015625 C 1.859375 3.496094 2.203125 3.023438 2.609375 2.617188 C 3.023438 2.203125 3.496094 1.859375 4.015625 1.59375 C 4.535156 1.332031 5.09375 1.148438 5.667969 1.050781 C 6.289062 0.953125 6.914062 0.894531 7.542969 0.890625 L 8.445312 0.875 L 111.214844 0.875 L 112.128906 0.890625 C 112.75 0.894531 113.371094 0.949219 113.984375 1.046875 C 114.566406 1.148438 115.128906 1.332031 115.65625 1.597656 C 116.695312 2.132812 117.539062 2.980469 118.070312 4.015625 C 118.332031 4.539062 118.511719 5.09375 118.609375 5.667969 C 118.707031 6.292969 118.765625 6.921875 118.78125 7.554688 C 118.785156 7.835938 118.785156 8.140625 118.785156 8.445312 C 118.792969 8.820312 118.792969 9.175781 118.792969 9.535156 L 118.792969 30.464844 C 118.792969 30.828125 118.792969 31.183594 118.785156 31.542969 C 118.785156 31.863281 118.785156 32.164062 118.777344 32.46875 C 118.765625 33.089844 118.707031 33.710938 118.609375 34.324219 C 118.515625 34.902344 118.332031 35.46875 118.070312 35.992188 C 117.804688 36.507812 117.460938 36.972656 117.050781 37.378906 C 116.640625 37.792969 116.171875 38.140625 115.652344 38.402344 C 115.128906 38.667969 114.566406 38.855469 113.984375 38.953125 C 113.367188 39.050781 112.742188 39.109375 112.113281 39.113281 C 111.824219 39.121094 111.515625 39.125 111.21875 39.125 L 110.136719 39.128906 Z M 8.445312 39.125 "/>
<path style=" stroke:none;fill-rule:nonzero;fill:rgb(100%,100%,100%);fill-opacity:1;" d="M 42.300781 27.140625 L 37.570312 27.140625 L 36.429688 30.496094 L 34.425781 30.496094 L 38.910156 18.078125 L 40.992188 18.078125 L 45.476562 30.496094 L 43.4375 30.496094 Z M 38.058594 25.589844 L 41.8125 25.589844 L 39.960938 20.140625 L 39.910156 20.140625 Z M 55.160156 25.96875 C 55.160156 28.785156 53.652344 30.589844 51.382812 30.589844 C 50.207031 30.652344 49.101562 30.039062 48.53125 29.007812 L 48.488281 29.007812 L 48.488281 33.488281 L 46.632812 33.488281 L 46.632812 21.441406 L 48.429688 21.441406 L 48.429688 22.949219 L 48.464844 22.949219 C 49.054688 21.921875 50.164062 21.308594 51.347656 21.347656 C 53.644531 21.347656 55.160156 23.164062 55.160156 25.96875 Z M 53.25 25.96875 C 53.25 24.136719 52.300781 22.929688 50.859375 22.929688 C 49.4375 22.929688 48.484375 24.164062 48.484375 25.96875 C 48.484375 27.796875 49.4375 29.015625 50.859375 29.015625 C 52.300781 29.015625 53.25 27.820312 53.25 25.96875 Z M 65.125 25.96875 C 65.125 28.785156 63.617188 30.589844 61.347656 30.589844 C 60.171875 30.652344 59.066406 30.039062 58.496094 29.007812 L 58.453125 29.007812 L 58.453125 33.488281 L 56.597656 33.488281 L 56.597656 21.441406 L 58.394531 21.441406 L 58.394531 22.949219 L 58.429688 22.949219 C 59.019531 21.921875 60.128906 21.308594 61.3125 21.347656 C 63.609375 21.347656 65.125 23.164062 65.125 25.96875 Z M 63.214844 25.96875 C 63.214844 24.136719 62.265625 22.929688 60.824219 22.929688 C 59.402344 22.929688 58.449219 24.164062 58.449219 25.96875 C 58.449219 27.796875 59.402344 29.015625 60.824219 29.015625 C 62.265625 29.015625 63.214844 27.820312 63.214844 25.96875 Z M 71.710938 27.035156 C 71.847656 28.265625 73.046875 29.078125 74.679688 29.078125 C 76.246094 29.078125 77.371094 28.265625 77.371094 27.15625 C 77.371094 26.195312 76.695312 25.613281 75.082031 25.222656 L 73.476562 24.832031 C 71.195312 24.28125 70.136719 23.214844 70.136719 21.484375 C 70.136719 19.34375 72.003906 17.871094 74.652344 17.871094 C 77.277344 17.871094 79.078125 19.34375 79.140625 21.484375 L 77.261719 21.484375 C 77.148438 20.246094 76.125 19.496094 74.628906 19.496094 C 73.132812 19.496094 72.109375 20.253906 72.109375 21.359375 C 72.109375 22.234375 72.761719 22.75 74.359375 23.144531 L 75.730469 23.484375 C 78.277344 24.082031 79.335938 25.109375 79.335938 26.921875 C 79.335938 29.246094 77.484375 30.703125 74.542969 30.703125 C 71.789062 30.703125 69.925781 29.28125 69.808594 27.035156 Z M 83.347656 19.296875 L 83.347656 21.441406 L 85.070312 21.441406 L 85.070312 22.914062 L 83.347656 22.914062 L 83.347656 27.90625 C 83.347656 28.679688 83.691406 29.042969 84.449219 29.042969 C 84.652344 29.039062 84.859375 29.023438 85.058594 29 L 85.058594 30.460938 C 84.71875 30.523438 84.371094 30.554688 84.027344 30.546875 C 82.195312 30.546875 81.480469 29.859375 81.480469 28.105469 L 81.480469 22.914062 L 80.164062 22.914062 L 80.164062 21.441406 L 81.480469 21.441406 L 81.480469 19.296875 Z M 86.066406 25.96875 C 86.066406 23.121094 87.742188 21.328125 90.359375 21.328125 C 92.984375 21.328125 94.652344 23.121094 94.652344 25.96875 C 94.652344 28.828125 92.992188 30.609375 90.359375 30.609375 C 87.726562 30.609375 86.066406 28.828125 86.066406 25.96875 Z M 92.761719 25.96875 C 92.761719 24.015625 91.863281 22.859375 90.359375 22.859375 C 88.855469 22.859375 87.957031 24.023438 87.957031 25.96875 C 87.957031 27.929688 88.855469 29.078125 90.359375 29.078125 C 91.863281 29.078125 92.761719 27.929688 92.761719 25.96875 Z M 96.1875 21.441406 L 97.957031 21.441406 L 97.957031 22.984375 L 98 22.984375 C 98.25 21.992188 99.15625 21.308594 100.179688 21.347656 C 100.390625 21.347656 100.609375 21.371094 100.816406 21.417969 L 100.816406 23.15625 C 100.546875 23.074219 100.265625 23.035156 99.984375 23.042969 C 99.433594 23.019531 98.90625 23.238281 98.535156 23.640625 C 98.160156 24.039062 97.984375 24.582031 98.046875 25.125 L 98.046875 30.496094 L 96.1875 30.496094 Z M 109.386719 27.835938 C 109.136719 29.480469 107.535156 30.609375 105.484375 30.609375 C 102.851562 30.609375 101.214844 28.84375 101.214844 26.015625 C 101.214844 23.171875 102.859375 21.328125 105.410156 21.328125 C 107.914062 21.328125 109.488281 23.050781 109.488281 25.796875 L 109.488281 26.433594 L 103.09375 26.433594 L 103.09375 26.546875 C 103.035156 27.21875 103.265625 27.890625 103.734375 28.378906 C 104.199219 28.867188 104.855469 29.136719 105.527344 29.109375 C 106.429688 29.195312 107.28125 28.675781 107.621094 27.835938 Z M 103.101562 25.136719 L 107.628906 25.136719 C 107.664062 24.527344 107.441406 23.9375 107.019531 23.5 C 106.601562 23.066406 106.015625 22.824219 105.410156 22.835938 C 104.796875 22.832031 104.207031 23.074219 103.773438 23.507812 C 103.34375 23.9375 103.101562 24.523438 103.101562 25.136719 Z M 103.101562 25.136719 "/>
<path style=" stroke:none;fill-rule:nonzero;fill:rgb(100%,100%,100%);fill-opacity:1;" d="M 37.828125 8.734375 C 38.613281 8.671875 39.390625 8.976562 39.929688 9.546875 C 40.476562 10.125 40.734375 10.914062 40.636719 11.699219 C 40.636719 13.605469 39.605469 14.699219 37.828125 14.699219 L 35.671875 14.699219 L 35.671875 8.734375 Z M 36.597656 13.855469 L 37.722656 13.855469 C 38.289062 13.890625 38.835938 13.667969 39.21875 13.25 C 39.601562 12.832031 39.773438 12.265625 39.691406 11.707031 C 39.765625 11.152344 39.589844 10.589844 39.207031 10.175781 C 38.828125 9.765625 38.285156 9.546875 37.722656 9.578125 L 36.597656 9.578125 Z M 41.679688 12.445312 C 41.605469 11.640625 41.988281 10.859375 42.679688 10.429688 C 43.367188 10 44.238281 10 44.929688 10.429688 C 45.617188 10.859375 46.003906 11.640625 45.925781 12.445312 C 46.007812 13.253906 45.621094 14.035156 44.929688 14.464844 C 44.238281 14.890625 43.367188 14.890625 42.675781 14.464844 C 41.988281 14.035156 41.601562 13.253906 41.679688 12.445312 Z M 45.015625 12.445312 C 45.015625 11.46875 44.578125 10.898438 43.804688 10.898438 C 43.035156 10.898438 42.597656 11.46875 42.597656 12.445312 C 42.597656 13.425781 43.035156 13.996094 43.804688 13.996094 C 44.578125 13.996094 45.015625 13.421875 45.015625 12.445312 Z M 51.574219 14.699219 L 50.652344 14.699219 L 49.722656 11.382812 L 49.648438 11.382812 L 48.722656 14.699219 L 47.808594 14.699219 L 46.570312 10.195312 L 47.472656 10.195312 L 48.277344 13.632812 L 48.34375 13.632812 L 49.269531 10.195312 L 50.121094 10.195312 L 51.046875 13.632812 L 51.117188 13.632812 L 51.921875 10.195312 L 52.808594 10.195312 Z M 53.855469 10.195312 L 54.707031 10.195312 L 54.707031 10.910156 L 54.773438 10.910156 C 55.007812 10.386719 55.546875 10.0625 56.117188 10.109375 C 56.5625 10.078125 56.996094 10.246094 57.300781 10.570312 C 57.605469 10.894531 57.742188 11.34375 57.675781 11.785156 L 57.675781 14.699219 L 56.789062 14.699219 L 56.789062 12.007812 C 56.789062 11.28125 56.476562 10.921875 55.816406 10.921875 C 55.515625 10.910156 55.226562 11.027344 55.015625 11.246094 C 54.8125 11.464844 54.710938 11.765625 54.742188 12.0625 L 54.742188 14.699219 L 53.855469 14.699219 Z M 59.09375 8.4375 L 59.984375 8.4375 L 59.984375 14.699219 L 59.09375 14.699219 Z M 61.21875 12.445312 C 61.140625 11.640625 61.527344 10.859375 62.214844 10.429688 C 62.90625 10 63.777344 10 64.464844 10.429688 C 65.15625 10.859375 65.542969 11.640625 65.464844 12.445312 C 65.546875 13.253906 65.15625 14.035156 64.46875 14.464844 C 63.777344 14.890625 62.90625 14.890625 62.214844 14.464844 C 61.523438 14.035156 61.140625 13.253906 61.21875 12.445312 Z M 64.550781 12.445312 C 64.550781 11.46875 64.109375 10.898438 63.34375 10.898438 C 62.570312 10.898438 62.136719 11.46875 62.136719 12.445312 C 62.136719 13.425781 62.570312 13.996094 63.34375 13.996094 C 64.109375 13.996094 64.550781 13.421875 64.550781 12.445312 Z M 66.398438 13.421875 C 66.398438 12.613281 67.003906 12.144531 68.078125 12.078125 L 69.296875 12.011719 L 69.296875 11.621094 C 69.296875 11.144531 68.984375 10.878906 68.375 10.878906 C 67.878906 10.878906 67.535156 11.058594 67.433594 11.378906 L 66.578125 11.378906 C 66.667969 10.605469 67.390625 10.109375 68.414062 10.109375 C 69.546875 10.109375 70.179688 10.671875 70.179688 11.621094 L 70.179688 14.699219 L 69.328125 14.699219 L 69.328125 14.066406 L 69.253906 14.066406 C 68.964844 14.527344 68.449219 14.796875 67.902344 14.769531 C 67.519531 14.8125 67.140625 14.6875 66.851562 14.429688 C 66.566406 14.171875 66.402344 13.808594 66.398438 13.421875 Z M 69.296875 13.042969 L 69.296875 12.664062 L 68.195312 12.734375 C 67.578125 12.773438 67.296875 12.984375 67.296875 13.382812 C 67.296875 13.789062 67.644531 14.023438 68.128906 14.023438 C 68.417969 14.050781 68.703125 13.964844 68.921875 13.777344 C 69.140625 13.59375 69.273438 13.328125 69.296875 13.042969 Z M 71.347656 12.445312 C 71.347656 11.019531 72.078125 10.121094 73.21875 10.121094 C 73.792969 10.09375 74.328125 10.402344 74.597656 10.910156 L 74.664062 10.910156 L 74.664062 8.4375 L 75.550781 8.4375 L 75.550781 14.699219 L 74.703125 14.699219 L 74.703125 13.984375 L 74.632812 13.984375 C 74.34375 14.488281 73.796875 14.796875 73.21875 14.769531 C 72.074219 14.769531 71.347656 13.871094 71.347656 12.445312 Z M 72.265625 12.445312 C 72.265625 13.398438 72.714844 13.976562 73.46875 13.976562 C 74.21875 13.976562 74.679688 13.390625 74.679688 12.449219 C 74.679688 11.511719 74.210938 10.921875 73.46875 10.921875 C 72.722656 10.921875 72.265625 11.496094 72.265625 12.445312 Z M 79.230469 12.445312 C 79.152344 11.640625 79.539062 10.859375 80.230469 10.429688 C 80.917969 10 81.789062 10 82.480469 10.429688 C 83.167969 10.859375 83.554688 11.640625 83.476562 12.445312 C 83.554688 13.253906 83.171875 14.035156 82.480469 14.464844 C 81.792969 14.890625 80.917969 14.890625 80.230469 14.464844 C 79.539062 14.035156 79.152344 13.253906 79.230469 12.445312 Z M 82.5625 12.445312 C 82.5625 11.46875 82.125 10.898438 81.355469 10.898438 C 80.582031 10.898438 80.148438 11.46875 80.148438 12.445312 C 80.148438 13.425781 80.582031 13.996094 81.355469 13.996094 C 82.125 13.996094 82.5625 13.421875 82.5625 12.445312 Z M 84.671875 10.195312 L 85.523438 10.195312 L 85.523438 10.910156 L 85.589844 10.910156 C 85.824219 10.386719 86.359375 10.0625 86.933594 10.109375 C 87.378906 10.078125 87.8125 10.246094 88.117188 10.570312 C 88.421875 10.894531 88.558594 11.34375 88.492188 11.785156 L 88.492188 14.699219 L 87.605469 14.699219 L 87.605469 12.007812 C 87.605469 11.28125 87.292969 10.921875 86.632812 10.921875 C 86.332031 10.910156 86.042969 11.027344 85.832031 11.246094 C 85.628906 11.464844 85.527344 11.765625 85.558594 12.0625 L 85.558594 14.699219 L 84.671875 14.699219 Z M 93.515625 9.074219 L 93.515625 10.214844 L 94.488281 10.214844 L 94.488281 10.964844 L 93.515625 10.964844 L 93.515625 13.28125 C 93.515625 13.75 93.707031 13.957031 94.152344 13.957031 C 94.265625 13.957031 94.378906 13.953125 94.488281 13.9375 L 94.488281 14.675781 C 94.328125 14.703125 94.171875 14.722656 94.007812 14.722656 C 93.019531 14.722656 92.625 14.375 92.625 13.507812 L 92.625 10.964844 L 91.910156 10.964844 L 91.910156 10.214844 L 92.625 10.214844 L 92.625 9.074219 Z M 95.703125 8.4375 L 96.585938 8.4375 L 96.585938 10.921875 L 96.65625 10.921875 C 96.898438 10.390625 97.449219 10.066406 98.027344 10.109375 C 98.46875 10.085938 98.898438 10.265625 99.199219 10.585938 C 99.5 10.914062 99.640625 11.355469 99.578125 11.792969 L 99.578125 14.699219 L 98.691406 14.699219 L 98.691406 12.011719 C 98.691406 11.292969 98.355469 10.925781 97.726562 10.925781 C 97.417969 10.902344 97.113281 11.015625 96.894531 11.234375 C 96.675781 11.453125 96.566406 11.761719 96.59375 12.070312 L 96.59375 14.699219 L 95.703125 14.699219 Z M 104.761719 13.484375 C 104.511719 14.332031 103.691406 14.882812 102.808594 14.785156 C 102.207031 14.800781 101.632812 14.550781 101.234375 14.105469 C 100.828125 13.65625 100.648438 13.054688 100.730469 12.460938 C 100.648438 11.863281 100.832031 11.265625 101.234375 10.8125 C 101.628906 10.359375 102.203125 10.105469 102.804688 10.109375 C 104.058594 10.109375 104.816406 10.964844 104.816406 12.378906 L 104.816406 12.6875 L 101.636719 12.6875 L 101.636719 12.738281 C 101.609375 13.074219 101.722656 13.402344 101.953125 13.648438 C 102.175781 13.894531 102.5 14.03125 102.832031 14.027344 C 103.265625 14.078125 103.691406 13.863281 103.90625 13.484375 Z M 101.636719 12.03125 L 103.910156 12.03125 C 103.929688 11.726562 103.828125 11.421875 103.613281 11.203125 C 103.402344 10.980469 103.109375 10.859375 102.800781 10.863281 C 102.488281 10.859375 102.191406 10.984375 101.972656 11.203125 C 101.753906 11.421875 101.632812 11.722656 101.636719 12.03125 Z M 101.636719 12.03125 "/>
<path style=" stroke:none;fill-rule:nonzero;fill:rgb(100%,100%,100%);fill-opacity:1;" d="M 24.765625 20.300781 C 24.792969 18.605469 25.679688 17.039062 27.125 16.148438 C 26.207031 14.839844 24.730469 14.042969 23.136719 13.992188 C 21.453125 13.816406 19.828125 14.996094 18.972656 14.996094 C 18.101562 14.996094 16.78125 14.011719 15.363281 14.039062 C 13.496094 14.097656 11.796875 15.136719 10.890625 16.765625 C 8.953125 20.113281 10.398438 25.035156 12.25 27.742188 C 13.175781 29.066406 14.261719 30.546875 15.675781 30.496094 C 17.066406 30.4375 17.582031 29.609375 19.257812 29.609375 C 20.917969 29.609375 21.402344 30.496094 22.851562 30.460938 C 24.335938 30.4375 25.273438 29.132812 26.171875 27.792969 C 26.835938 26.847656 27.347656 25.804688 27.6875 24.703125 C 25.921875 23.953125 24.769531 22.222656 24.765625 20.300781 Z M 22.039062 12.210938 C 22.847656 11.234375 23.25 9.984375 23.152344 8.722656 C 21.914062 8.851562 20.765625 9.445312 19.945312 10.382812 C 19.132812 11.304688 18.722656 12.515625 18.800781 13.742188 C 20.054688 13.753906 21.25 13.191406 22.039062 12.210938 Z M 22.039062 12.210938 "/>
</g>
</svg>
