<svg width="135" height="40" viewBox="0 0 135 40" fill="none" xmlns="http://www.w3.org/2000/svg">
<path d="M130 0H5C2.23858 0 0 2.23858 0 5V35C0 37.7614 2.23858 40 5 40H130C132.761 40 135 37.7614 135 35V5C135 2.23858 132.761 0 130 0Z" fill="black"/>
<path d="M130 0.8C132.32 0.8 134.2 2.6804 134.2 5V35C134.2 37.3196 132.32 39.2 130 39.2H5C2.6804 39.2 0.8 37.3196 0.8 35V5C0.8 2.6804 2.6804 0.8 5 0.8H130ZM130 0H5C2.23858 0 0 2.23858 0 5V35C0 37.7614 2.23858 40 5 40H130C132.761 40 135 37.7614 135 35V5C135 2.23858 132.761 0 130 0Z" fill="#A6A6A6"/>
<path d="M68.14 21.7501C65.7954 21.7612 63.9027 23.6688 63.91 26.0134C63.9174 28.358 65.822 30.2537 68.1666 30.2501C70.5112 30.2464 72.41 28.3447 72.41 26.0001C72.4265 24.8645 71.9812 23.7708 71.1763 22.9696C70.3713 22.1684 69.2755 21.7283 68.14 21.7501ZM68.14 28.5801C67.0832 28.654 66.0887 28.0745 65.632 27.1186C65.1754 26.1627 65.3494 25.0248 66.071 24.2492C66.7925 23.4735 67.9148 23.2178 68.9012 23.6042C69.8875 23.9907 70.5374 24.9408 70.54 26.0001C70.5726 26.6628 70.336 27.3105 69.8841 27.7963C69.4323 28.2821 68.8033 28.5648 68.14 28.5801ZM58.83 21.7501C56.4841 21.7557 54.5863 23.6609 54.59 26.0068C54.5937 28.3527 56.4974 30.252 58.8433 30.2501C61.1892 30.2483 63.09 28.346 63.09 26.0001C63.1065 24.8645 62.6612 23.7708 61.8563 22.9696C61.0513 22.1684 59.9555 21.7283 58.82 21.7501H58.83ZM58.83 28.5801C57.7727 28.6582 56.7752 28.0815 56.3154 27.1262C55.8555 26.171 56.0268 25.0316 56.7473 24.2538C57.4678 23.4761 58.5908 23.2182 59.5784 23.6038C60.566 23.9894 61.2171 24.9399 61.22 26.0001C61.2526 26.6628 61.016 27.3105 60.5641 27.7963C60.1123 28.2821 59.4833 28.5648 58.82 28.5801H58.83ZM47.74 23.0601V24.8601H52.06C51.9923 25.7079 51.6399 26.5079 51.06 27.1301C50.186 28.0204 48.9765 28.4998 47.73 28.4501C45.079 28.4501 42.93 26.3011 42.93 23.6501C42.93 20.9992 45.079 18.8501 47.73 18.8501C48.9478 18.8303 50.1238 19.2942 51 20.1401L52.27 18.8701C51.0749 17.66 49.4407 16.9854 47.74 17.0001C45.319 16.9059 43.0404 18.1438 41.8019 20.2262C40.5633 22.3086 40.5633 24.9017 41.8019 26.9841C43.0404 29.0665 45.319 30.3044 47.74 30.2101C49.4718 30.2884 51.1527 29.6138 52.35 28.3601C53.3977 27.2091 53.957 25.6959 53.91 24.1401C53.9132 23.7611 53.8797 23.3827 53.81 23.0101L47.74 23.0601ZM93.05 24.4601C92.5161 22.8893 91.0679 21.8112 89.41 21.7501C88.3044 21.748 87.2472 22.2035 86.4894 23.0087C85.7316 23.8138 85.3409 24.8967 85.41 26.0001C85.3855 27.1294 85.8212 28.2202 86.6171 29.0217C87.4129 29.8233 88.5006 30.2667 89.63 30.2501C91.0509 30.2578 92.3806 29.5516 93.17 28.3701L91.72 27.3701C91.2798 28.1041 90.4859 28.5523 89.63 28.5501C88.7436 28.5839 87.9266 28.0723 87.57 27.2601L93.26 24.9101L93.05 24.4601ZM87.25 25.8801C87.2091 25.2553 87.4213 24.6403 87.839 24.1737C88.2566 23.7072 88.8445 23.4284 89.47 23.4001C90.1294 23.3567 90.7511 23.7108 91.05 24.3001L87.25 25.8801ZM82.63 30.0001H84.5V17.5001H82.63V30.0001ZM79.57 22.7001H79.5C78.93 22.0628 78.1151 21.699 77.26 21.7001C74.9902 21.8102 73.2063 23.6826 73.2063 25.9551C73.2063 28.2277 74.9902 30.1001 77.26 30.2101C78.1178 30.2246 78.938 29.8584 79.5 29.2101H79.56V29.8201C79.56 31.4501 78.69 32.3201 77.29 32.3201C76.3363 32.2978 75.4907 31.7012 75.15 30.8101L73.52 31.4901C74.1477 33.0169 75.6392 34.01 77.29 34.0002C79.48 34.0002 81.29 32.7101 81.29 29.5701V22.0001H79.57V22.7001ZM77.43 28.5801C76.0929 28.4623 75.0674 27.3424 75.0674 26.0001C75.0674 24.6578 76.0929 23.538 77.43 23.4201C78.0761 23.4533 78.6815 23.7459 79.1089 24.2316C79.5362 24.7174 79.7494 25.3551 79.7 26.0001C79.7551 26.6482 79.5427 27.2906 79.112 27.7779C78.6813 28.2653 78.0699 28.5552 77.42 28.5801H77.43ZM101.81 17.5001H97.34V30.0001H99.21V25.2601H101.82C103.273 25.3645 104.662 24.6486 105.42 23.4051C106.178 22.1616 106.178 20.5987 105.42 19.3552C104.662 18.1116 103.273 17.3958 101.82 17.5001H101.81ZM101.81 23.5001H99.2V19.2401H101.85C103.035 19.2401 103.995 20.2005 103.995 21.3851C103.995 22.5698 103.035 23.5301 101.85 23.5301L101.81 23.5001ZM113.34 21.7001C111.949 21.617 110.641 22.3672 110.01 23.6101L111.67 24.3001C112.004 23.6838 112.671 23.323 113.37 23.3801C113.85 23.3241 114.331 23.4631 114.708 23.7658C115.084 24.0686 115.322 24.5097 115.37 24.9901V25.1201C114.769 24.8021 114.1 24.6373 113.42 24.6401C111.63 24.6401 109.82 25.6401 109.82 27.4501C109.856 28.2298 110.205 28.962 110.789 29.4799C111.373 29.9979 112.142 30.2577 112.92 30.2001C113.879 30.269 114.8 29.8089 115.32 29.0001H115.38V30.0001H117.18V25.1901C117.18 23.0001 115.52 21.7301 113.39 21.7301L113.34 21.7001ZM113.11 28.5501C112.5 28.5501 111.65 28.2401 111.65 27.4901C111.65 26.4901 112.71 26.1601 113.65 26.1601C114.244 26.1455 114.831 26.2905 115.35 26.5801C115.221 27.6996 114.287 28.5527 113.16 28.5801L113.11 28.5501ZM123.74 22.0001L121.6 27.4201H121.54L119.32 22.0001H117.32L120.65 29.5801L118.75 33.7901H120.7L125.82 22.0001H123.74ZM106.93 30.0001H108.8V17.5001H106.93V30.0001Z" fill="white"/>
<path d="M47.42 10.2405C47.4544 10.9817 47.1833 11.7046 46.67 12.2405C46.0965 12.8363 45.2965 13.1599 44.47 13.1305C43.2024 13.1205 42.0642 12.3517 41.5817 11.1794C41.0992 10.0071 41.3665 8.65978 42.26 7.76046C42.8405 7.16779 43.6406 6.84197 44.47 6.86046C44.8928 6.85905 45.3113 6.94413 45.7 7.11046C46.0619 7.25641 46.384 7.48602 46.64 7.78046L46.11 8.31046C45.7054 7.82914 45.0979 7.56615 44.47 7.60046C43.8389 7.59736 43.2337 7.85155 42.794 8.3044C42.3544 8.75725 42.1182 9.36968 42.14 10.0005C42.1266 10.9536 42.688 11.8213 43.5629 12.1997C44.4379 12.5781 45.4546 12.393 46.14 11.7305C46.4477 11.397 46.6252 10.964 46.64 10.5105H44.47V9.79046H47.38C47.4067 9.93897 47.4201 10.0896 47.42 10.2405ZM52 7.74046H49.3V9.64046H51.76V10.3605H49.3V12.2605H52V13.0005H48.5V7.00046H52V7.74046ZM55.28 13.0005H54.51V7.74046H52.83V7.00046H57V7.74046H55.28V13.0005ZM59.94 13.0005V7.00046H60.71V13.0005H59.94ZM64.13 13.0005H63.36V7.74046H61.68V7.00046H65.8V7.74046H64.13V13.0005ZM73.61 12.2205C72.393 13.4307 70.427 13.4307 69.21 12.2205C68.0303 10.9717 68.0303 9.01923 69.21 7.77046C69.792 7.18421 70.5839 6.85449 71.41 6.85449C72.2361 6.85449 73.028 7.18421 73.61 7.77046C74.7948 9.01722 74.7948 10.9737 73.61 12.2205ZM69.78 11.7205C70.6813 12.618 72.1387 12.618 73.04 11.7205C73.9252 10.7446 73.9252 9.25629 73.04 8.28046C72.1387 7.38289 70.6813 7.38289 69.78 8.28046C68.8948 9.25629 68.8948 10.7446 69.78 11.7205ZM75.58 13.0005V7.00046H76.52L79.44 11.6705V7.00046H80.21V13.0005H79.41L76.36 8.11046V13.0005H75.58Z" fill="white" stroke="white" stroke-width="0.2"/>
<path d="M10.44 7.53973C10.1141 7.93083 9.94955 8.43152 9.97999 8.93973V31.0597C9.94955 31.5679 10.1141 32.0686 10.44 32.4597L10.51 32.5297L22.9 20.1497V19.8597L10.51 7.46973L10.44 7.53973Z" fill="url(#paint0_linear)"/>
<path d="M27 24.2797L22.9 20.1497V19.8597L27 15.7197L27.09 15.7697L32 18.5597C33.4 19.3497 33.4 20.6497 32 21.4497L27.11 24.2297L27 24.2797Z" fill="url(#paint1_linear)"/>
<path d="M27.12 24.22L22.9 20L10.44 32.46C11.0287 32.9775 11.9024 33.0027 12.52 32.52L27.13 24.22" fill="url(#paint2_linear)"/>
<path d="M27.12 15.7796L12.51 7.47956C11.8924 6.99684 11.0187 7.02204 10.43 7.53956L22.9 19.9996L27.12 15.7796Z" fill="url(#paint3_linear)"/>
<path opacity="0.2" d="M27 24.1299L12.51 32.3799C11.917 32.8232 11.103 32.8232 10.51 32.3799L10.44 32.4499L10.51 32.5199C11.1018 32.9666 11.9182 32.9666 12.51 32.5199L27.12 24.2199L27 24.1299Z" fill="black"/>
<path opacity="0.12" d="M10.44 32.32C10.1141 31.9289 9.94955 31.4282 9.97999 30.92V31.07C9.94955 31.5782 10.1141 32.0789 10.44 32.47L10.51 32.4L10.44 32.32ZM32 21.3L27 24.13L27.09 24.22L32 21.44C32.5671 21.1736 32.9485 20.6244 33 20C32.886 20.5648 32.5167 21.045 32 21.3Z" fill="black"/>
<path opacity="0.25" d="M12.51 7.61945L32 18.6994C32.5167 18.9545 32.886 19.4346 33 19.9994C32.9485 19.375 32.5671 18.8258 32 18.5594L12.51 7.47945C11.11 6.68945 9.97 7.34945 9.97 8.94945V9.09945C10 7.48945 11.12 6.82945 12.51 7.61945Z" fill="white"/>
<defs>
<linearGradient id="paint0_linear" x1="17.8642" y1="8.70973" x2="7.24284" y2="19.3311" gradientUnits="userSpaceOnUse">
<stop stop-color="#00A0FF"/>
<stop offset="0.01" stop-color="#00A1FF"/>
<stop offset="0.26" stop-color="#00BEFF"/>
<stop offset="0.51" stop-color="#00D2FF"/>
<stop offset="0.76" stop-color="#00DFFF"/>
<stop offset="1" stop-color="#00E3FF"/>
</linearGradient>
<linearGradient id="paint1_linear" x1="33.83" y1="19.9997" x2="9.63999" y2="19.9997" gradientUnits="userSpaceOnUse">
<stop stop-color="#FFE000"/>
<stop offset="0.41" stop-color="#FFBD00"/>
<stop offset="0.78" stop-color="#FFA500"/>
<stop offset="1" stop-color="#FF9C00"/>
</linearGradient>
<linearGradient id="paint2_linear" x1="24.83" y1="23.977" x2="6.68556" y2="42.1134" gradientUnits="userSpaceOnUse">
<stop stop-color="#FF3A44"/>
<stop offset="1" stop-color="#C31162"/>
</linearGradient>
<linearGradient id="paint3_linear" x1="7.29999" y1="5.61157" x2="15.3987" y2="13.7103" gradientUnits="userSpaceOnUse">
<stop stop-color="#32A071"/>
<stop offset="0.07" stop-color="#2DA771"/>
<stop offset="0.48" stop-color="#15CF74"/>
<stop offset="0.8" stop-color="#06E775"/>
<stop offset="1" stop-color="#00F076"/>
</linearGradient>
</defs>
</svg>
