<svg width="18" height="18" viewBox="0 0 18 18" fill="#000" xmlns="http://www.w3.org/2000/svg">
<path d="M17.1821 9.0755V6.54563C17.1821 5.68778 16.5167 4.99013 15.676 4.92248L13.3265 0.818851C13.1088 0.439323 12.7572 0.168062 12.3366 0.0554233C11.9179 -0.0564485 11.4801 0.00230624 11.1053 0.220412L3.05136 4.90928H1.63684C0.734385 4.90928 0.000488281 5.64314 0.000488281 6.54563V16.3637C0.000488281 17.2661 0.734347 18 1.63684 18H15.5457C16.4482 18 17.1821 17.2661 17.1821 16.3637V13.8338C17.6572 13.6644 18.0002 13.2145 18.0002 12.6819V10.2274C18.0002 9.69476 17.6572 9.24494 17.1821 9.0755ZM14.7253 4.90928H11.1597L13.8339 3.35236L14.7253 4.90928ZM13.4274 2.64236L9.5336 4.90928H7.91849L13.0236 1.93703L13.4274 2.64236ZM11.5172 0.927501C11.7022 0.819235 11.9183 0.790471 12.1248 0.84562C12.3338 0.901537 12.508 1.03657 12.6162 1.22553L12.6171 1.22703L6.2925 4.90928H4.67747L11.5172 0.927501ZM16.3639 16.3637C16.3639 16.8147 15.9967 17.1818 15.5457 17.1818H1.63684C1.18582 17.1818 0.818682 16.8147 0.818682 16.3637V6.54563C0.818682 6.09462 1.18582 5.72748 1.63684 5.72748H15.5457C15.9967 5.72748 16.3639 6.09462 16.3639 6.54563V9.00014H13.9094C12.5559 9.00014 11.4549 10.1011 11.4549 11.4546C11.4549 12.8081 12.5559 13.9091 13.9094 13.9091H16.3639V16.3637ZM17.1821 12.6819C17.1821 12.9076 16.9987 13.091 16.773 13.091H13.9094C13.0069 13.091 12.273 12.3571 12.273 11.4546C12.273 10.5522 13.0069 9.81829 13.9094 9.81829H16.773C16.9987 9.81829 17.1821 10.0017 17.1821 10.2274V12.6819Z" fill="black"/>
</svg>
