<svg width="22" height="22" viewBox="0 0 22 22" fill="none" xmlns="http://www.w3.org/2000/svg">
<g clip-path="url(#clip0_24_1848)">
<path d="M19.1821 11.0755V8.54563C19.1821 7.68778 18.5167 6.99013 17.676 6.92248L15.3265 2.81885C15.1088 2.43932 14.7572 2.16806 14.3366 2.05542C13.9179 1.94355 13.4801 2.00231 13.1053 2.22041L5.05136 6.90928H3.63684C2.73439 6.90928 2.00049 7.64314 2.00049 8.54563V18.3637C2.00049 19.2661 2.73435 20 3.63684 20H17.5457C18.4482 20 19.1821 19.2661 19.1821 18.3637V15.8338C19.6572 15.6644 20.0002 15.2145 20.0002 14.6819V12.2274C20.0002 11.6948 19.6572 11.2449 19.1821 11.0755ZM16.7253 6.90928H13.1597L15.8339 5.35236L16.7253 6.90928ZM15.4274 4.64236L11.5336 6.90928H9.91849L15.0236 3.93703L15.4274 4.64236ZM13.5172 2.9275C13.7022 2.81923 13.9183 2.79047 14.1248 2.84562C14.3338 2.90154 14.508 3.03657 14.6162 3.22553L14.6171 3.22703L8.2925 6.90928H6.67747L13.5172 2.9275ZM18.3639 18.3637C18.3639 18.8147 17.9967 19.1818 17.5457 19.1818H3.63684C3.18582 19.1818 2.81868 18.8147 2.81868 18.3637V8.54563C2.81868 8.09462 3.18582 7.72748 3.63684 7.72748H17.5457C17.9967 7.72748 18.3639 8.09462 18.3639 8.54563V11.0001H15.9094C14.5559 11.0001 13.4549 12.1011 13.4549 13.4546C13.4549 14.8081 14.5559 15.9091 15.9094 15.9091H18.3639V18.3637ZM19.1821 14.6819C19.1821 14.9076 18.9987 15.091 18.773 15.091H15.9094C15.0069 15.091 14.273 14.3571 14.273 13.4546C14.273 12.5522 15.0069 11.8183 15.9094 11.8183H18.773C18.9987 11.8183 19.1821 12.0017 19.1821 12.2274V14.6819Z" fill="white"/>
<path d="M15.909 12.6365C15.458 12.6365 15.0908 13.0036 15.0908 13.4546C15.0908 13.9057 15.458 14.2728 15.909 14.2728C16.36 14.2728 16.7271 13.9057 16.7271 13.4546C16.7272 13.0036 16.36 12.6365 15.909 12.6365Z" fill="white"/>
</g>
<defs>
<clipPath id="clip0_24_1848">
<rect width="18" height="18" fill="white" transform="translate(2 2)"/>
</clipPath>
</defs>
</svg>
