<svg width="55" height="51" viewBox="0 0 55 51" fill="none" xmlns="http://www.w3.org/2000/svg">
<path d="M3.22416 48H1.71216V38.032H3.22416V48ZM9.17416 48H7.25616L3.23816 42.778L6.96216 38.032H8.82416L4.98816 42.736L9.17416 48ZM15.7698 44.444C15.7698 45.0973 15.7091 45.6433 15.5878 46.082C15.4665 46.5207 15.2471 46.908 14.9298 47.244C14.3885 47.804 13.6791 48.084 12.8018 48.084C11.9338 48.084 11.2291 47.804 10.6878 47.244C10.3705 46.908 10.1511 46.5207 10.0298 46.082C9.90847 45.6433 9.8478 45.0973 9.8478 44.444C9.8478 43.8 9.90847 43.2587 10.0298 42.82C10.1511 42.372 10.3705 41.9847 10.6878 41.658C11.2291 41.098 11.9338 40.818 12.8018 40.818C13.6791 40.818 14.3885 41.098 14.9298 41.658C15.2471 41.9847 15.4665 42.372 15.5878 42.82C15.7091 43.2587 15.7698 43.8 15.7698 44.444ZM13.8518 46.39C14.1785 46.0633 14.3418 45.4147 14.3418 44.444C14.3418 43.4733 14.1785 42.8247 13.8518 42.498C13.5811 42.2273 13.2311 42.092 12.8018 42.092C12.3818 42.092 12.0365 42.2273 11.7658 42.498C11.4391 42.8247 11.2758 43.4733 11.2758 44.444C11.2758 45.4147 11.4391 46.0633 11.7658 46.39C12.0458 46.67 12.3911 46.81 12.8018 46.81C13.2218 46.81 13.5718 46.67 13.8518 46.39ZM23.5133 44.444C23.5133 45.9093 23.2473 46.9127 22.7153 47.454C22.2953 47.874 21.7213 48.084 20.9933 48.084C20.2 48.084 19.5793 47.8133 19.1313 47.272V50.87H17.7033V40.902H19.1033V41.658C19.57 41.098 20.1953 40.818 20.9793 40.818C21.7167 40.818 22.2953 41.028 22.7153 41.448C23.2473 41.9893 23.5133 42.988 23.5133 44.444ZM22.0293 45.354C22.0667 45.102 22.0853 44.7987 22.0853 44.444C22.0853 44.0893 22.0667 43.786 22.0293 43.534C22.0013 43.282 21.936 43.0393 21.8333 42.806C21.74 42.5727 21.5907 42.3953 21.3853 42.274C21.18 42.1527 20.9233 42.092 20.6153 42.092C20.298 42.092 20.0367 42.1527 19.8313 42.274C19.626 42.3953 19.472 42.5727 19.3693 42.806C19.276 43.0393 19.2107 43.282 19.1733 43.534C19.1453 43.786 19.1313 44.0893 19.1313 44.444C19.1313 44.7987 19.1453 45.102 19.1733 45.354C19.2107 45.606 19.276 45.8533 19.3693 46.096C19.472 46.3293 19.626 46.5067 19.8313 46.628C20.046 46.7493 20.3073 46.81 20.6153 46.81C20.9233 46.81 21.18 46.7493 21.3853 46.628C21.5907 46.5067 21.74 46.3293 21.8333 46.096C21.936 45.8533 22.0013 45.606 22.0293 45.354ZM30.2593 45.942C30.2593 46.5767 29.9933 47.09 29.4613 47.482C28.9386 47.874 28.3039 48.07 27.5573 48.07C26.3066 48.07 25.3126 47.734 24.5753 47.062L25.4293 46.166C25.9519 46.6327 26.5913 46.866 27.3473 46.866C27.7486 46.866 28.0986 46.7773 28.3973 46.6C28.7053 46.4133 28.8593 46.166 28.8593 45.858C28.8593 45.2233 28.4486 44.906 27.6273 44.906H26.5773V43.842H27.6133C27.9586 43.842 28.2339 43.758 28.4393 43.59C28.6446 43.422 28.7473 43.1887 28.7473 42.89C28.7473 42.6007 28.6213 42.3813 28.3693 42.232C28.1266 42.0733 27.7906 41.994 27.3613 41.994C26.7173 41.994 26.1479 42.1713 25.6533 42.526L24.8553 41.616C25.5459 41.084 26.4559 40.818 27.5853 40.818C28.3133 40.818 28.9199 40.9907 29.4053 41.336C29.8999 41.672 30.1473 42.1387 30.1473 42.736C30.1473 43.0813 30.0539 43.394 29.8673 43.674C29.6806 43.954 29.4286 44.1593 29.1113 44.29C29.4566 44.4207 29.7319 44.6353 29.9373 44.934C30.1519 45.2233 30.2593 45.5593 30.2593 45.942ZM38.1169 48H36.6889V43.114L33.6509 48H32.2229V40.902H33.6509V45.718L36.6889 40.902H38.1169V48ZM46.069 48H44.641V44.976H41.813V48H40.385V40.902H41.813V43.73H44.641V40.902H46.069V48ZM53.564 48H52.164V47.356C51.9027 47.6173 51.6273 47.804 51.338 47.916C51.058 48.028 50.7033 48.084 50.274 48.084C49.434 48.084 48.7993 47.8693 48.37 47.44C47.9967 47.048 47.81 46.5393 47.81 45.914C47.81 45.298 48.02 44.8033 48.44 44.43C48.8693 44.0567 49.4807 43.87 50.274 43.87H52.136V43.366C52.136 42.9087 52.0147 42.5727 51.772 42.358C51.5293 42.1433 51.1327 42.036 50.582 42.036C50.2087 42.036 49.9053 42.092 49.672 42.204C49.448 42.3067 49.2333 42.484 49.028 42.736L48.104 41.854C48.4307 41.4713 48.7807 41.2053 49.154 41.056C49.5367 40.8973 50.0313 40.818 50.638 40.818C52.5887 40.818 53.564 41.63 53.564 43.254V48ZM52.136 45.438V44.864H50.498C49.63 44.864 49.196 45.2047 49.196 45.886C49.196 46.558 49.644 46.894 50.54 46.894C51.1093 46.894 51.5387 46.7587 51.828 46.488C52.0333 46.292 52.136 45.942 52.136 45.438Z" fill="#111111"/>
<path d="M32.3813 27.9435C32.4368 27.9527 32.4919 27.9572 32.5463 27.9572C33.0244 27.9572 33.4464 27.6119 33.5276 27.1247L34.5237 21.1481C34.6142 20.6055 34.2476 20.0923 33.7049 20.0018C33.1623 19.9111 32.6491 20.2779 32.5586 20.8206L31.5625 26.7972C31.4721 27.3398 31.8387 27.8531 32.3813 27.9435Z" fill="#FF9846"/>
<path d="M20.5391 27.1246C20.6203 27.6118 21.0423 27.9571 21.5205 27.9571C21.5748 27.9571 21.63 27.9527 21.6854 27.9434C22.2281 27.8529 22.5946 27.3398 22.5042 26.7971L21.5081 20.8205C21.4177 20.2778 20.9045 19.9114 20.3618 20.0017C19.8191 20.0922 19.4526 20.6054 19.543 21.148L20.5391 27.1246Z" fill="#FF9846"/>
<path d="M43.0039 12.0195H39.4983L31.8286 2.43245C31.485 2.003 30.8582 1.93321 30.4286 2.27693C29.999 2.62058 29.9293 3.24739 30.273 3.67697L36.9471 12.0195H17.0529L23.727 3.67697C24.0707 3.24739 24.001 2.62051 23.5715 2.27693C23.1419 1.93321 22.5151 2.00293 22.1715 2.43245L14.5017 12.0195H10.9961C10.446 12.0195 10 12.4655 10 13.0156V17C10 17.5501 10.446 17.9961 10.9961 17.9961H12.237L16.0149 31.219C16.1371 31.6466 16.5279 31.9414 16.9727 31.9414H37.0273C37.4721 31.9414 37.8629 31.6466 37.9851 31.219L41.763 17.9961H43.0039C43.554 17.9961 44 17.5501 44 17V13.0156C44 12.4655 43.554 12.0195 43.0039 12.0195ZM36.276 29.9492H17.724L14.3088 17.9961H39.6912L36.276 29.9492ZM42.0078 16.0039C38.5955 16.0039 15.2248 16.0039 11.9922 16.0039V14.0117H42.0078V16.0039Z" fill="#FF9846"/>
<path d="M27 27.957C27.5501 27.957 27.9961 27.511 27.9961 26.9609V20.9844C27.9961 20.4343 27.5501 19.9883 27 19.9883C26.4499 19.9883 26.0039 20.4343 26.0039 20.9844V26.9609C26.0039 27.5111 26.4499 27.957 27 27.957Z" fill="#FF9846"/>
</svg>