<svg width="51" height="49" viewBox="0 0 51 49" fill="none" xmlns="http://www.w3.org/2000/svg">
<path d="M8.24757 38.44C8.35957 38.972 8.41557 39.8307 8.41557 41.016C8.41557 42.2013 8.35957 43.06 8.24757 43.592C8.1449 44.124 7.8649 44.6187 7.40757 45.076C6.73557 45.748 5.8769 46.084 4.83157 46.084C3.78624 46.084 2.92757 45.748 2.25557 45.076C1.79824 44.6187 1.51357 44.124 1.40157 43.592C1.2989 43.06 1.24757 42.2013 1.24757 41.016C1.24757 39.8307 1.2989 38.972 1.40157 38.44C1.51357 37.908 1.79824 37.4133 2.25557 36.956C2.92757 36.284 3.78624 35.948 4.83157 35.948C5.8769 35.948 6.73557 36.284 7.40757 36.956C7.8649 37.4133 8.1449 37.908 8.24757 38.44ZM6.79157 43.13C6.86624 42.7287 6.90357 42.024 6.90357 41.016C6.90357 40.008 6.86624 39.3033 6.79157 38.902C6.7169 38.4913 6.55824 38.16 6.31557 37.908C5.92357 37.4973 5.4289 37.292 4.83157 37.292C4.23424 37.292 3.73957 37.4973 3.34757 37.908C3.1049 38.1693 2.94624 38.5053 2.87157 38.916C2.7969 39.3173 2.75957 40.0173 2.75957 41.016C2.75957 42.0147 2.7969 42.7147 2.87157 43.116C2.94624 43.5173 3.1049 43.8487 3.34757 44.11C3.7489 44.53 4.24357 44.74 4.83157 44.74C5.41957 44.74 5.91424 44.53 6.31557 44.11C6.55824 43.858 6.7169 43.5313 6.79157 43.13ZM15.298 40.148H13.128V46H11.7V40.148H9.44599V38.902H15.298V40.148ZM21.478 43.942C21.478 44.5767 21.212 45.09 20.68 45.482C20.1573 45.874 19.5227 46.07 18.776 46.07C17.5253 46.07 16.5313 45.734 15.794 45.062L16.648 44.166C17.1707 44.6327 17.81 44.866 18.566 44.866C18.9673 44.866 19.3173 44.7773 19.616 44.6C19.924 44.4133 20.078 44.166 20.078 43.858C20.078 43.2233 19.6673 42.906 18.846 42.906H17.796V41.842H18.832C19.1773 41.842 19.4527 41.758 19.658 41.59C19.8633 41.422 19.966 41.1887 19.966 40.89C19.966 40.6007 19.84 40.3813 19.588 40.232C19.3453 40.0733 19.0093 39.994 18.58 39.994C17.936 39.994 17.3667 40.1713 16.872 40.526L16.074 39.616C16.7647 39.084 17.6747 38.818 18.804 38.818C19.532 38.818 20.1387 38.9907 20.624 39.336C21.1187 39.672 21.366 40.1387 21.366 40.736C21.366 41.0813 21.2727 41.394 21.086 41.674C20.8993 41.954 20.6473 42.1593 20.33 42.29C20.6753 42.4207 20.9507 42.6353 21.156 42.934C21.3707 43.2233 21.478 43.5593 21.478 43.942ZM31.4496 46H30.0216V38.902H31.4496V46ZM28.3976 42.192C28.827 42.6027 29.0416 43.1347 29.0416 43.788C29.0416 44.4413 28.827 44.9733 28.3976 45.384C27.9776 45.7947 27.4223 46 26.7316 46H23.4416V38.902H24.8696V41.576H26.7316C27.4223 41.576 27.9776 41.7813 28.3976 42.192ZM27.3196 44.558C27.525 44.3713 27.6276 44.1147 27.6276 43.788C27.6276 43.4613 27.525 43.2093 27.3196 43.032C27.1236 42.8453 26.8483 42.752 26.4936 42.752H24.8696V44.838H26.4936C26.8483 44.838 27.1236 44.7447 27.3196 44.558ZM39.4746 43.998C39.4746 44.614 39.2832 45.104 38.9006 45.468C38.5179 45.8227 37.9952 46 37.3326 46H33.8186V38.902H37.2206C37.8739 38.902 38.3919 39.0747 38.7746 39.42C39.1666 39.7653 39.3626 40.2273 39.3626 40.806C39.3626 41.5153 39.0312 42.024 38.3686 42.332C39.1059 42.668 39.4746 43.2233 39.4746 43.998ZM37.9626 40.904C37.9626 40.624 37.8692 40.4093 37.6826 40.26C37.5052 40.1013 37.2486 40.022 36.9126 40.022H35.2326V41.814H36.9126C37.6126 41.814 37.9626 41.5107 37.9626 40.904ZM38.0746 43.9C38.0746 43.592 37.9766 43.354 37.7806 43.186C37.5939 43.0087 37.3326 42.92 36.9966 42.92H35.2326V44.88H36.9966C37.3326 44.88 37.5939 44.7913 37.7806 44.614C37.9766 44.4367 38.0746 44.1987 38.0746 43.9ZM49.4555 46H48.0275V38.902H49.4555V46ZM46.4035 42.192C46.8328 42.6027 47.0475 43.1347 47.0475 43.788C47.0475 44.4413 46.8328 44.9733 46.4035 45.384C45.9835 45.7947 45.4281 46 44.7375 46H41.4475V38.902H42.8755V41.576H44.7375C45.4281 41.576 45.9835 41.7813 46.4035 42.192ZM45.3255 44.558C45.5308 44.3713 45.6335 44.1147 45.6335 43.788C45.6335 43.4613 45.5308 43.2093 45.3255 43.032C45.1295 42.8453 44.8541 42.752 44.4995 42.752H42.8755V44.838H44.4995C44.8541 44.838 45.1295 44.7447 45.3255 44.558Z" fill="#111111"/>
<g clip-path="url(#clip0_132_163)">
<path d="M21.6366 10.2599L21.4323 10.3441C21.0884 9.74331 20.4414 9.33731 19.701 9.33731H16.5373C15.4379 9.33731 14.5435 10.2318 14.5435 11.3312V20.3291C14.5435 21.4286 15.438 22.323 16.5373 22.323H19.701C20.3273 22.323 20.8869 22.0324 21.2527 21.5792C22.3536 22.0669 23.5559 22.323 24.7605 22.323H31.4453C32.5664 22.323 33.4785 21.4109 33.4785 20.2897C33.4785 19.939 33.3892 19.6087 33.2322 19.3204C33.931 18.9983 34.4174 18.2916 34.4174 17.4731C34.4174 17.1367 34.3348 16.8194 34.1895 16.5396C34.9321 16.2364 35.4569 15.5067 35.4569 14.6565C35.4569 13.8062 34.9321 13.0766 34.1895 12.7735C34.3348 12.4937 34.4174 12.1764 34.4174 11.8399C34.4174 10.7188 33.5053 9.80663 32.3841 9.80663H29.0535C28.7386 9.80663 28.4825 9.5505 28.4825 9.23569V7.39713C28.4825 5.56413 26.9913 4.07288 25.1583 4.07288C24.3545 4.07288 23.7006 4.72681 23.7006 5.53056V7.17731C23.7005 8.53344 22.8904 9.74344 21.6366 10.2599ZM19.7009 21.073H16.5373C16.1271 21.073 15.7934 20.7392 15.7934 20.3291V11.3312C15.7934 10.9211 16.1271 10.5873 16.5373 10.5873H19.7009C20.1111 10.5873 20.4448 10.9211 20.4448 11.3312V20.3291C20.4448 20.7392 20.1111 21.073 19.7009 21.073ZM24.9505 7.17744V5.53069C24.9505 5.41619 25.0437 5.323 25.1582 5.323C26.302 5.323 27.2325 6.2535 27.2325 7.39725V9.23581C27.2325 10.2399 28.0493 11.0568 29.0534 11.0568H32.3841C32.816 11.0568 33.1673 11.4081 33.1673 11.8401C33.1673 12.2719 32.816 12.6233 32.3841 12.6233H28.4833C28.1382 12.6233 27.8583 12.9031 27.8583 13.2483C27.8583 13.5934 28.1382 13.8733 28.4833 13.8733H33.4235C33.8555 13.8733 34.2068 14.2247 34.2068 14.6566C34.2068 15.0885 33.8555 15.4399 33.4235 15.4399H28.4833C28.1382 15.4399 27.8583 15.7197 27.8583 16.0649C27.8583 16.41 28.1382 16.6899 28.4833 16.6899H32.3841C32.816 16.6899 33.1673 17.0413 33.1673 17.4731C33.1673 17.905 32.816 18.2564 32.3841 18.2564H28.4833C28.1382 18.2564 27.8583 18.5362 27.8583 18.8814C27.8583 19.2265 28.1382 19.5064 28.4833 19.5064H31.4453C31.8771 19.5064 32.2285 19.8577 32.2285 20.2897C32.2285 20.7216 31.8771 21.0729 31.4453 21.0729H24.7604C23.7054 21.0729 22.6527 20.8427 21.6928 20.4059C21.6938 20.3804 21.6948 20.3548 21.6948 20.3291V11.5878L22.1127 11.4157C23.8366 10.7055 24.9505 9.04194 24.9505 7.17744Z" fill="#FF9846"/>
<path d="M35.375 1.25H27.8125C27.4674 1.25 27.1875 1.52988 27.1875 1.875C27.1875 2.22012 27.4674 2.5 27.8125 2.5H35.375C37.7874 2.5 39.75 4.46263 39.75 6.875V21.375C39.75 23.7874 37.7874 25.75 35.375 25.75H27.1651C26.9418 25.75 26.7354 25.8691 26.6238 26.0625L25 28.875L23.3762 26.0625C23.2646 25.8691 23.0582 25.75 22.8349 25.75H14.625C12.2126 25.75 10.25 23.7874 10.25 21.375V6.875C10.25 4.46263 12.2126 2.5 14.625 2.5H22.1874C22.5326 2.5 22.8124 2.22012 22.8124 1.875C22.8124 1.52988 22.5326 1.25 22.1874 1.25H14.625C11.5234 1.25 9 3.77338 9 6.875V21.375C9 24.4766 11.5234 27 14.625 27H22.4741L24.4587 30.4375C24.5703 30.6309 24.7766 30.75 24.9999 30.75C25.2232 30.75 25.4296 30.6309 25.5412 30.4375L27.5258 27H35.375C38.4766 27 41 24.4766 41 21.375V6.875C41 3.77338 38.4766 1.25 35.375 1.25Z" fill="#FF9846"/>
<path d="M25 2.5C25.1644 2.5 25.325 2.43313 25.4418 2.31681C25.5581 2.20063 25.625 2.03938 25.625 1.875C25.625 1.71062 25.5581 1.54938 25.4418 1.43313C25.3256 1.31681 25.1644 1.25 25 1.25C24.8356 1.25 24.6744 1.31681 24.5581 1.43313C24.4419 1.54938 24.375 1.71062 24.375 1.875C24.375 2.03938 24.4419 2.20063 24.5581 2.31681C24.6744 2.43313 24.8356 2.5 25 2.5Z" fill="#FF9846"/>
</g>
<defs>
<clipPath id="clip0_132_163">
<rect width="32" height="32" fill="white" transform="translate(9)"/>
</clipPath>
</defs>
</svg>