<svg width="50" height="50" viewBox="0 0 50 50" fill="none" xmlns="http://www.w3.org/2000/svg">
<path d="M15.384 47H13.858V40.336L11.562 45.194H10.442L8.10404 40.336V47H6.59204V37.032H8.09004L11.002 43.234L13.872 37.032H15.384V47ZM23.4687 43.864H18.8627C18.8627 44.4893 19.0167 44.9793 19.3247 45.334C19.642 45.6793 20.09 45.852 20.6687 45.852C21.0514 45.852 21.3687 45.796 21.6207 45.684C21.8727 45.572 22.1294 45.3853 22.3907 45.124L23.3007 45.978C22.918 46.3607 22.526 46.6407 22.1247 46.818C21.7327 46.9953 21.238 47.084 20.6407 47.084C19.67 47.084 18.8954 46.7947 18.3167 46.216C17.738 45.6373 17.4487 44.7133 17.4487 43.444C17.4487 42.3053 17.7194 41.4187 18.2607 40.784C18.802 40.14 19.5347 39.818 20.4587 39.818C21.4014 39.818 22.1387 40.1307 22.6707 40.756C23.2027 41.3813 23.4687 42.2167 23.4687 43.262V43.864ZM22.0547 42.87C22.0267 42.45 21.9614 42.128 21.8587 41.904C21.588 41.3067 21.1214 41.008 20.4587 41.008C19.7867 41.008 19.3154 41.3067 19.0447 41.904C18.9327 42.1467 18.872 42.4687 18.8627 42.87H22.0547ZM31.0436 47H29.6156V43.976H26.7876V47H25.3596V39.902H26.7876V42.73H29.6156V39.902H31.0436V47ZM41.9126 43.444C41.9126 44.0973 41.852 44.6433 41.7306 45.082C41.6093 45.5207 41.39 45.908 41.0726 46.244C40.5313 46.804 39.822 47.084 38.9446 47.084C38.0766 47.084 37.372 46.804 36.8306 46.244C36.3266 45.7213 36.0513 44.9653 36.0046 43.976H34.7446V47H33.3166V39.902H34.7446V42.758H36.0046C36.0793 41.8433 36.3546 41.1433 36.8306 40.658C37.372 40.098 38.0766 39.818 38.9446 39.818C39.822 39.818 40.5313 40.098 41.0726 40.658C41.6326 41.2367 41.9126 42.1653 41.9126 43.444ZM39.9946 45.39C40.3213 45.0633 40.4846 44.4147 40.4846 43.444C40.4846 42.4733 40.3213 41.8247 39.9946 41.498C39.724 41.2273 39.374 41.092 38.9446 41.092C38.5246 41.092 38.1793 41.2273 37.9086 41.498C37.582 41.8247 37.4186 42.4733 37.4186 43.444C37.4186 44.4147 37.582 45.0633 37.9086 45.39C38.1886 45.67 38.534 45.81 38.9446 45.81C39.3646 45.81 39.7146 45.67 39.9946 45.39Z" fill="#111111"/>
<path d="M47.4779 4.6627C45.1985 3.24014 42.9767 3.01419 41.0195 3.99744C40.5106 3.4927 39.4707 2.66345 38.0603 2.56052C36.8018 2.46848 35.5591 2.96896 34.3646 4.04712C34.247 2.99728 33.7616 2.02295 32.9943 1.2968C32.0843 0.450362 30.8837 -0.0138185 29.641 0.00031346C27.3703 0.00031346 25.4068 1.70999 24.9331 3.91549L19.3938 0.349968C19.2738 0.272821 19.1392 0.221164 18.9983 0.198198C18.8575 0.175232 18.7134 0.181447 18.5751 0.21646C18.4347 0.252715 18.3033 0.317431 18.189 0.40659C18.0748 0.49575 17.98 0.60745 17.9107 0.734756C17.8426 0.859654 17.7782 0.986301 17.7175 1.1147C15.9345 0.457448 13.6999 0.923291 12.3743 2.3034C11.8187 2.87404 11.42 3.57871 11.2173 4.34895C11.0145 5.11919 11.0144 5.92879 11.217 6.69907H10.8818C10.0221 3.58841 6.86981 1.95206 6.73551 1.88368C6.6077 1.81851 6.46062 1.80182 6.32145 1.8367C6.18229 1.87157 6.06046 1.95565 5.97848 2.07338C5.8965 2.19112 5.85992 2.33456 5.8755 2.47717C5.89107 2.61979 5.95776 2.75195 6.06322 2.84921C6.1134 2.93017 6.49274 3.66966 5.62954 6.19622C3.46966 4.98999 1.2024 4.60184 0.747246 4.53355C0.693394 4.52272 0.638582 4.51738 0.583651 4.51762C0.433902 4.52018 0.290651 4.57924 0.182602 4.68295C0.0745527 4.78667 0.00968656 4.92738 0.00100026 5.0769C-0.00768605 5.22642 0.0404491 5.3737 0.135761 5.48923C0.231073 5.60476 0.366522 5.68001 0.514967 5.69989C0.518728 5.69989 0.551685 5.70504 0.610274 5.71444C0.646496 5.76452 0.814445 5.99699 0.825728 6.01283C1.15183 6.47382 1.60758 7.4923 1.92477 9.72691C2.16764 11.4356 3.14465 12.8791 4.2142 13.8096C3.43314 13.9802 2.86823 14.4513 2.79242 15.0546C2.75308 15.3657 2.73325 15.6789 2.73304 15.9925C2.73304 19.3953 4.99724 22.5689 9.10847 24.9287C11.0666 26.0526 13.3375 26.929 15.8058 27.5323V29.6908C15.8058 29.8483 15.8684 29.9993 15.9798 30.1107C16.0911 30.222 16.2422 30.2846 16.3997 30.2846H31.7525C31.91 30.2846 32.061 30.222 32.1724 30.1107C32.2837 29.9993 32.3463 29.8483 32.3463 29.6908V27.5322C34.8148 26.9285 37.0857 26.0525 39.0438 24.9286C43.155 22.5688 45.4192 19.3952 45.4192 15.9924C45.419 15.6788 45.3992 15.3656 45.3598 15.0545C45.3365 14.8803 45.2735 14.7139 45.1757 14.5679C47.0944 13.864 48.4801 12.2401 49.2158 10.711C49.7232 9.66606 49.8264 8.47041 49.5056 7.35394C49.1848 6.23747 48.4626 5.27897 47.4779 4.6627ZM29.641 1.18793C31.4521 1.18793 32.8658 2.35318 33.1552 3.98428C32.8173 3.97824 32.4375 3.98606 32.0334 4.01723C31.802 3.48639 31.3942 3.05189 30.879 2.78739C30.3639 2.52288 29.7731 2.44465 29.2069 2.56594C28.6407 2.68724 28.1338 3.0006 27.7722 3.45291C27.4106 3.90522 27.2165 4.46865 27.2229 5.04769C27.2228 5.16614 27.2294 5.28449 27.2427 5.40219L26.0266 4.61946C26.1885 2.72897 27.7774 1.18793 29.641 1.18793ZM30.7544 4.19478C29.9271 4.35478 29.134 4.65812 28.4111 5.09114C28.4111 5.07639 28.4102 5.06263 28.4102 5.0472C28.4028 4.7714 28.4824 4.50026 28.6376 4.27217C28.7928 4.04409 29.0159 3.87062 29.2752 3.77633C29.5345 3.68205 29.8168 3.67172 30.0823 3.74682C30.3478 3.82192 30.5829 3.97864 30.7544 4.19478ZM18.8843 1.43416L26.8371 6.55329C26.6221 6.85664 26.4386 7.1812 26.2896 7.5219L20.9751 4.09829C20.8499 4.01686 20.7074 3.96607 20.5589 3.95003C20.4105 3.93398 20.2604 3.95314 20.1208 4.00595C19.9799 4.05908 19.8533 4.14419 19.751 4.25459C19.6486 4.36499 19.5733 4.49765 19.531 4.64212C19.1771 5.85547 19.4962 7.40709 20.4064 8.89914C21.2583 10.2955 22.5829 11.5631 24.1785 12.5222C23.8637 12.9005 23.5642 13.2658 23.4278 13.7395H23.164C21.0631 12.22 19.4678 10.1208 18.6644 7.80702C17.8673 5.50987 17.9463 3.2535 18.8843 1.43416ZM25.0419 10.8757C25.0994 10.9123 25.1614 10.9414 25.2262 10.9623C25.1277 11.1698 25.0173 11.3713 24.8955 11.566C21.8192 9.76481 20.3307 7.03804 20.6056 5.27225L25.9103 8.68982C25.8944 8.76147 25.8791 8.83382 25.8652 8.90755C25.8289 9.09889 25.7899 9.27997 25.7481 9.45079C25.5766 9.38752 25.3886 9.38518 25.2156 9.44416C25.0426 9.50315 24.8951 9.61986 24.798 9.77471C24.6861 9.95357 24.649 10.1692 24.6946 10.3752C24.7402 10.5812 24.8649 10.761 25.0419 10.8759V10.8757ZM18.0628 9.45712C18.8431 11.0814 19.9351 12.5364 21.2767 13.7393H18.0628V9.45712ZM13.2311 3.12602C14.2215 2.09497 15.9488 1.73622 17.2904 2.22264C17.2015 2.51724 17.1293 2.81659 17.074 3.1193C16.7484 3.01019 16.4071 2.95493 16.0637 2.9557C15.2775 2.96026 14.5252 3.27644 13.9719 3.83489C13.4185 4.39334 13.1092 5.14847 13.1118 5.93464C13.113 6.1928 13.1472 6.44974 13.2138 6.69917H12.4616C12.2351 6.09232 12.1871 5.43325 12.3235 4.8C12.4599 4.16675 12.7748 3.58583 13.2311 3.12602ZM17.1325 6.69878H14.4685C14.3594 6.45852 14.3018 6.19809 14.2995 5.93425C14.2964 5.46291 14.4804 5.00962 14.8112 4.6738C15.1419 4.33797 15.5923 4.14706 16.0637 4.14292C16.3677 4.13974 16.668 4.21012 16.9389 4.34808C16.9097 5.13666 16.9747 5.92591 17.1325 6.69907V6.69878ZM11.0816 7.88639H16.8752V13.7392H9.78076C9.84277 13.2432 9.85907 12.7426 9.82946 12.2437C10.7536 10.7568 11.1728 9.29659 11.0816 7.88669V7.88639ZM7.37317 3.73062C8.24409 4.42033 9.3456 5.54738 9.7484 7.05328C10.0313 8.11095 9.9311 9.2283 9.45575 10.3885C9.24724 9.80334 8.95764 9.25032 8.59542 8.74564C8.05944 8.01059 7.4057 7.36915 6.66059 6.84723C7.10447 5.60458 7.34347 4.55998 7.37317 3.73062ZM3.10071 9.55985C2.89149 8.0876 2.59548 6.92344 2.21762 6.08329C3.85316 6.55369 6.27036 7.53486 7.6292 9.43663C8.49457 10.6478 8.81305 12.0938 8.58226 13.7397H8.17293C7.44947 9.76471 5.19715 8.63816 5.09759 8.59036C5.02724 8.55622 4.95083 8.53632 4.87276 8.53179C4.7947 8.52726 4.7165 8.53819 4.64267 8.56397C4.56884 8.58974 4.50083 8.62984 4.44254 8.68197C4.38425 8.73409 4.33683 8.79722 4.303 8.86773C4.26917 8.93823 4.2496 9.01472 4.24542 9.09281C4.24123 9.17089 4.25251 9.24904 4.2786 9.32275C4.3047 9.39647 4.3451 9.46431 4.39748 9.52237C4.44986 9.58043 4.5132 9.62757 4.58385 9.66109C4.60225 9.6699 6.31668 10.5285 6.96512 13.7397H6.48126C5.49811 13.6295 3.43878 11.9368 3.10091 9.55965L3.10071 9.55985ZM31.1587 29.097H16.994V27.7986C21.6698 28.728 26.4828 28.728 31.1587 27.7986V29.097ZM44.1934 16.6765H14.4541C14.2967 16.6765 14.1456 16.739 14.0343 16.8504C13.9229 16.9617 13.8603 17.1128 13.8603 17.2703C13.8603 17.4277 13.9229 17.5788 14.0343 17.6901C14.1456 17.8015 14.2967 17.8641 14.4541 17.8641H43.9532C43.2769 20.1213 41.3827 22.2167 38.4526 23.8986C34.6226 26.0971 29.5166 27.3079 24.0764 27.3079C18.6362 27.3079 13.5307 26.0972 9.7002 23.8987C6.77005 22.2168 4.8758 20.1214 4.19955 17.8642H10.2975C10.455 17.8642 10.606 17.8016 10.7174 17.6902C10.8287 17.5789 10.8913 17.4279 10.8913 17.2704C10.8913 17.1129 10.8287 16.9618 10.7174 16.8505C10.606 16.7391 10.455 16.6766 10.2975 16.6766H3.95936C3.90505 16.1904 3.90837 15.6996 3.96925 15.2142C4.01775 15.1281 4.34098 14.9272 4.86986 14.9272H43.2827C43.8115 14.9272 44.1346 15.1282 44.1833 15.2142C44.2155 15.4723 44.2317 15.7322 44.2318 15.9924C44.2312 16.2209 44.2184 16.4493 44.1934 16.6765ZM26.7089 13.7395C27.6517 13.3814 28.7117 13.0519 29.8343 12.7509C29.8541 12.7707 29.8739 12.7898 29.8945 12.8083C30.3244 13.165 30.7896 13.477 31.2828 13.7395H26.7089ZM48.1454 10.1964C47.3404 11.8695 45.6374 13.6784 43.2715 13.7395H34.2529C33.2195 13.4087 32.2308 12.9515 31.3095 12.3783C33.2327 11.9212 35.2583 11.5404 37.1353 11.2326C37.1619 11.2665 37.1895 11.2996 37.2198 11.3316C37.9673 12.1116 39.454 13.394 41.1468 13.3938C41.1963 13.3938 41.2469 13.3927 41.297 13.3904C41.3755 13.3877 41.4527 13.3695 41.5241 13.3368C41.5955 13.3041 41.6597 13.2576 41.713 13.1999C41.7663 13.1422 41.8076 13.0745 41.8345 13.0007C41.8615 12.927 41.8736 12.8486 41.87 12.7701C41.8665 12.6917 41.8474 12.6147 41.8139 12.5437C41.7804 12.4726 41.7331 12.4089 41.6748 12.3563C41.6166 12.3036 41.5484 12.2631 41.4743 12.237C41.4003 12.2108 41.3218 12.1997 41.2433 12.2041C40.2406 12.2477 39.2442 11.5684 38.595 11.0032C41.9964 10.4886 44.6091 10.2387 44.6716 10.2328C44.8284 10.2182 44.973 10.1418 45.0735 10.0205C45.174 9.89929 45.2222 9.74308 45.2075 9.58627C45.1928 9.42947 45.1165 9.28491 44.9952 9.18441C44.874 9.08391 44.7178 9.03569 44.561 9.05036C44.3045 9.07441 41.6858 9.3249 38.313 9.83656C38.7608 9.02423 39.6463 7.88927 41.1773 7.6368C41.332 7.61044 41.47 7.52391 41.5611 7.39612C41.6522 7.26833 41.689 7.10968 41.6635 6.95483C41.638 6.79998 41.5522 6.66153 41.4249 6.56975C41.2976 6.47797 41.1391 6.44031 40.9841 6.46501C38.4813 6.87771 37.335 9.01325 36.9583 9.91227C36.9386 9.96004 36.9217 10.0089 36.9077 10.0586C34.9465 10.381 32.8217 10.7844 30.8037 11.2752C31.1364 10.3276 31.866 8.89003 33.3218 8.39668C33.3964 8.37221 33.4654 8.33321 33.5248 8.28193C33.5842 8.23064 33.6328 8.1681 33.6679 8.0979C33.7029 8.02771 33.7238 7.95126 33.7291 7.87297C33.7345 7.79468 33.7243 7.71611 33.6991 7.64179C33.6739 7.56748 33.6342 7.49889 33.5823 7.44C33.5305 7.38111 33.4674 7.33309 33.3969 7.2987C33.3264 7.26432 33.2497 7.24425 33.1714 7.23967C33.093 7.23509 33.0146 7.24608 32.9405 7.272C30.6369 8.05286 29.7644 10.4794 29.4964 11.4863C29.4851 11.5297 29.4759 11.5736 29.4691 11.618C27.9283 12.0354 26.4924 12.508 25.2926 13.0383C25.8699 12.3274 26.6287 11.2485 27.0314 9.13003C27.4185 7.09524 28.7475 5.82697 30.9817 5.36063C32.1224 5.14141 33.2916 5.11321 34.4415 5.2772C34.5339 5.29337 34.6288 5.2874 34.7184 5.25977C34.8081 5.23214 34.8899 5.18364 34.9572 5.11825C35.9662 4.13847 36.978 3.67659 37.9632 3.74468C39.428 3.84622 40.4165 5.0947 40.425 5.10569C40.514 5.22177 40.6428 5.3009 40.7866 5.3279C40.9304 5.35489 41.0791 5.32785 41.2042 5.25196C42.8776 4.23665 44.7769 4.37748 46.8487 5.6706C47.5849 6.1322 48.1246 6.84959 48.364 7.68493C48.6034 8.52026 48.5257 9.41461 48.1458 10.1961L48.1454 10.1964Z" fill="#FF9846"/>
</svg>
